Coordinates
version=1
nRows=14
nColumns=24
inDegrees=yes

Units are S.I. units (second, meters, Newtons, ...)
Angles are in degrees.

endheader
time	pelvis_tilt	pelvis_list	pelvis_rotation	pelvis_tx	pelvis_ty	pelvis_tz	hip_flexion_r	hip_adduction_r	hip_rotation_r	knee_angle_r	ankle_angle_r	subtalar_angle_r	mtp_angle_r	hip_flexion_l	hip_adduction_l	hip_rotation_l	knee_angle_l	ankle_angle_l	subtalar_angle_l	mtp_angle_l	lumbar_extension	lumbar_bending	lumbar_rotation
      0.64200000	     -3.03148748	     -4.96803269	      3.69613489	     -0.41432801	      0.90164429	      0.32786293	     15.20406945	     10.14775210	     -3.81589324	    -24.82426246	     12.55598861	     -2.80377223	      1.47609804	     15.32322592	     -9.55463702	     -5.31259207	    -73.05015850	     -0.75133800	     -8.07862119	      1.70801980	     -4.39297957	      6.26913457	     -0.36995252
      0.64616667	     -3.15820181	     -4.82194558	      3.70213837	     -0.40907282	      0.90260166	      0.32793812	     14.68170601	     10.02855324	     -3.72089145	    -24.28627712	     12.60398044	     -2.72905227	      1.47691275	     16.21544464	     -9.29548732	     -5.33061479	    -73.15236880	     -0.36085531	     -8.26034177	      1.65920827	     -4.28242717	      6.11669651	     -0.27354717
      0.65033333	     -3.38396389	     -4.65008934	      3.65659754	     -0.40393155	      0.90336084	      0.32807409	     14.31126983	      9.88457843	     -3.56960037	    -23.83105884	     12.61236450	     -2.71046014	      1.47973999	     17.20975129	     -8.99546096	     -5.38274044	    -73.19641172	     -0.00791898	     -8.44950660	      1.15408309	     -4.09688579	      5.91099496	      0.09277532
      0.65450000	     -3.53604311	     -4.51221097	      3.65808361	     -0.39870685	      0.90422443	      0.32813652	     13.82217996	      9.76868112	     -3.48900000	    -23.29162702	     12.61798813	     -2.63074951	      1.47991109	     18.11212015	     -8.72847208	     -5.39151584	    -73.15374872	      0.36422346	     -8.57032644	      1.08798613	     -3.97139027	      5.77488677	      0.16895481
      0.65866667	     -3.69217293	     -4.33996247	      3.61246055	     -0.39346901	      0.90507936	      0.32824360	     13.34272732	      9.62439580	     -3.35577875	    -22.77315369	     12.61585465	     -2.58372687	      1.48030693	     18.97507054	     -8.43063247	     -5.46312888	    -73.00830854	      0.72634181	     -8.66909399	      1.01798775	     -3.83640132	      5.58340032	      0.33148999
      0.66283333	     -3.82940719	     -4.16019538	      3.54908211	     -0.38821633	      0.90594493	      0.32837056	     12.83898689	      9.47473096	     -3.20843350	    -22.24907781	     12.61276298	     -2.52608136	      1.48145193	     19.78871248	     -8.13132327	     -5.56104295	    -72.77298077	      1.07480683	     -8.74419527	      0.95372884	     -3.73059858	      5.38375038	      0.53298540
      0.66700000	     -3.95234539	     -3.97661152	      3.46573892	     -0.38294226	      0.90681008	      0.32853792	     12.31446395	      9.32745111	     -3.03944045	    -21.71560199	     12.62521548	     -2.48787308	      1.48683325	     20.55970939	     -7.84126674	     -5.68936784	    -72.45433314	      1.39281734	     -8.77885096	      0.84234128	     -3.63336649	      5.16864919	      0.86420827
      0.67116667	     -4.04113033	     -3.78387431	      3.36924587	     -0.37765885	      0.90771456	      0.32868572	     11.74986138	      9.16700412	     -2.87144362	    -21.17581466	     12.60892317	     -2.41969442	      1.49452042	     21.26244900	     -7.54066740	     -5.83278834	    -72.04792719	      1.73598406	     -8.80118394	      0.73346692	     -3.58581149	      4.96575934	      1.12419463
      0.67533333	     -4.13072233	     -3.58827146	      3.26542804	     -0.37238530	      0.90857909	      0.32883648	     11.19363318	      8.99910412	     -2.71691013	    -20.64515243	     12.56995156	     -2.32404741	      1.49720980	     21.94825918	     -7.23804721	     -5.98363071	    -71.57194469	      2.08246927	     -8.81233081	      0.70147242	     -3.53811490	      4.75095112	      1.26066614
      0.67950000	     -4.17764195	     -3.39148513	      3.14145480	     -0.36708387	      0.90948132	      0.32903796	     10.57977712	      8.83926622	     -2.52506019	    -20.09360568	     12.56173729	     -2.27546324	      1.50759184	     22.55625742	     -6.95567099	     -6.16805672	    -71.01458475	      2.39832171	     -8.77756556	      0.64338188	     -3.54217843	      4.52330111	      1.59987752
      0.68366667	     -4.23648770	     -3.18523037	      3.00424260	     -0.36180003	      0.91033847	      0.32921749	      9.99289580	      8.65872456	     -2.35331984	    -19.56325497	     12.49402496	     -2.18098461	      1.51353488	     23.15370844	     -6.65643788	     -6.35816401	    -70.38358916	      2.72922812	     -8.74833457	      0.61930155	     -3.52918144	      4.30439576	      1.78934447
      0.68783333	     -4.24348975	     -2.99296460	      2.85951332	     -0.35649281	      0.91122759	      0.32944415	      9.33363445	      8.50214420	     -2.15262686	    -18.99792295	     12.47501738	     -2.12653210	      1.52898018	     23.67370453	     -6.39560536	     -6.56744948	    -69.68736588	      3.02703619	     -8.67435792	      0.58572648	     -3.57644477	      4.08558078	      2.13324555
      0.69200000	     -4.25607438	     -2.79642026	      2.70330827	     -0.35119781	      0.91206892	      0.32966185	      8.69084146	      8.33348395	     -1.96080285	    -18.44750487	     12.41759090	     -2.05431092	      1.54628198	     24.17843621	     -6.12942815	     -6.78424604	    -68.92432071	      3.32703823	     -8.59763440	      0.56241635	     -3.61795627	      3.86880106	      2.41494567
      0.69616667	     -4.24855204	     -2.60280756	      2.53801354	     -0.34590920	      0.91289417	      0.32989029	      8.02914190	      8.16545051	     -1.76739639	    -17.89774692	     12.35846185	     -1.97626834	      1.56627607	     24.64020795	     -5.87344926	     -7.00900468	    -68.09713849	      3.61387353	     -8.50727978	      0.54801278	     -3.68522648	      3.65351485	      2.69320336
